<?xml version="1.0" standalone="no"?>
<!DOCTYPE svg PUBLIC "-//W3C//DTD SVG 20010904//EN"
 "http://www.w3.org/TR/2001/REC-SVG-20010904/DTD/svg10.dtd">
<svg version="1.0" xmlns="http://www.w3.org/2000/svg"
 width="1280.000000pt" height="640.000000pt" viewBox="0 0 1280.000000 640.000000"
 preserveAspectRatio="xMidYMid meet">
<g transform="translate(0.000000,640.000000) scale(0.100000,-0.100000)"
fill="#000000" stroke="none">
<path d="M1241 4718 c-18 -19 -23 -20 -51 -8 -46 19 -56 1 -20 -40 33 -39 37
-62 15 -80 -13 -10 -24 -10 -63 2 -80 26 -97 4 -29 -39 67 -43 87 -64 87 -94
0 -43 -21 -53 -95 -45 -105 11 -125 17 -162 52 -35 34 -63 44 -63 24 0 -6 7
-26 15 -46 l14 -34 -41 -30 c-23 -17 -51 -30 -64 -30 -32 0 -54 -10 -54 -25 0
-17 16 -22 105 -35 113 -16 147 -29 192 -75 38 -37 43 -48 43 -86 0 -24 -9
-63 -19 -85 -27 -59 -88 -124 -117 -124 -57 0 -116 41 -140 98 -18 43 -38 37
-44 -14 -8 -63 -28 -58 -183 44 -20 14 -40 22 -43 19 -3 -3 0 -21 7 -41 7 -20
10 -38 7 -41 -3 -4 -23 -2 -44 4 -47 13 -52 8 -32 -27 8 -15 21 -45 28 -67 7
-22 20 -52 28 -67 15 -26 15 -29 -3 -42 -34 -25 -3 -38 112 -48 59 -5 110 -11
113 -14 7 -8 -26 -31 -101 -69 -80 -41 -99 -58 -92 -84 9 -36 34 -46 141 -58
101 -11 107 -13 141 -48 l36 -35 1 -108 c0 -59 1 -115 2 -126 1 -10 35 -50 75
-90 74 -72 129 -143 141 -183 12 -39 -22 -59 -151 -88 -128 -30 -149 -38 -233
-95 -30 -21 -116 -68 -190 -104 -74 -36 -157 -83 -185 -104 l-50 -37 29 -3
c58 -7 120 10 213 58 51 27 93 47 93 45 0 -2 -31 -53 -69 -112 -38 -59 -72
-118 -76 -131 -6 -21 -4 -22 22 -16 66 15 110 45 155 107 25 34 89 103 140
153 112 109 134 116 280 103 98 -10 133 -7 236 18 57 14 82 14 275 -2 250 -21
328 -16 434 24 216 83 272 80 428 -21 75 -49 162 -51 327 -8 188 50 200 51
264 34 32 -8 83 -28 113 -44 31 -17 78 -39 105 -50 l49 -21 -22 -23 -22 -23
32 -7 c18 -3 59 -2 93 3 159 25 167 23 121 -40 -44 -62 -78 -120 -72 -126 3
-3 29 0 58 7 48 12 65 25 194 149 77 75 157 144 177 154 44 21 100 21 221 2
81 -13 103 -13 181 0 88 14 92 13 298 -21 259 -42 321 -43 453 -5 196 57 258
52 361 -25 128 -97 184 -106 394 -65 195 39 214 36 415 -79 39 -22 99 -49 134
-61 44 -15 65 -27 69 -41 4 -18 11 -20 59 -14 66 8 104 26 135 65 32 41 198
167 250 191 59 27 119 25 219 -6 71 -23 101 -27 197 -26 107 1 121 -1 310 -54
221 -62 325 -77 418 -57 103 21 207 27 263 13 41 -10 66 -26 126 -80 122 -111
154 -119 394 -100 l160 13 63 -30 c35 -17 79 -43 98 -60 100 -86 283 -179 334
-169 40 8 56 24 56 56 0 21 7 30 30 40 20 8 30 19 28 29 -4 19 -94 70 -125 71
-66 0 -232 78 -298 140 -83 77 -102 88 -163 95 -80 10 -137 37 -156 74 -12 23
-16 60 -16 148 1 65 -4 134 -10 153 -20 68 -13 122 23 169 l32 43 140 -5 c77
-4 316 -20 530 -37 1147 -90 1437 -126 1566 -197 66 -36 119 -81 119 -103 0
-36 -139 -134 -181 -128 -13 2 -42 28 -68 62 -51 64 -81 85 -124 86 -59 0
-110 -52 -93 -95 9 -24 43 -17 81 16 20 18 38 29 41 26 3 -3 0 -24 -6 -48 -27
-98 -121 -179 -191 -164 -18 4 -64 22 -103 41 -94 45 -127 50 -192 30 -116
-37 -230 -194 -228 -315 2 -60 31 -148 67 -202 30 -45 165 -148 258 -198 88
-47 176 -79 344 -126 66 -18 154 -46 195 -63 74 -30 168 -50 345 -72 287 -36
388 -50 455 -66 149 -34 396 -13 510 44 46 23 57 33 68 67 21 62 12 158 -18
191 -33 36 -79 54 -136 54 -57 0 -96 -22 -123 -70 -24 -43 -27 -70 -9 -88 24
-24 38 -13 38 31 0 48 6 59 37 76 48 25 153 5 179 -35 24 -35 14 -104 -21
-150 -42 -55 -101 -77 -196 -72 -95 4 -115 17 -176 113 -71 113 -71 114 -43
135 14 11 44 24 68 30 59 15 134 86 172 164 16 34 44 108 60 165 17 57 40 120
50 141 28 55 80 96 141 110 75 18 82 25 75 81 l-6 46 50 21 50 21 0 50 c0 51
0 51 -32 51 -26 0 -43 12 -98 68 -111 116 -180 144 -411 166 -70 7 -135 19
-144 26 -18 15 -20 75 -2 110 7 15 41 40 80 60 l67 36 -59 49 c-145 121 -241
151 -337 105 -38 -19 -50 -32 -69 -74 -13 -28 -33 -57 -44 -64 -14 -8 -21 -22
-21 -42 0 -69 -93 -181 -161 -195 -62 -12 -69 -16 -84 -46 -16 -31 -42 -37
-76 -19 -10 6 -19 17 -19 24 0 8 -15 16 -32 20 -56 10 -293 34 -548 56 -671
57 -953 80 -1145 95 -302 22 -557 45 -577 51 -25 8 -22 21 12 61 16 18 30 38
30 43 0 30 -116 -10 -172 -59 l-43 -38 -290 18 c-477 30 -726 49 -793 61 -77
13 -108 37 -150 115 -37 70 -122 305 -122 338 0 36 59 79 164 120 145 56 204
117 236 241 21 85 68 118 194 140 87 15 129 38 134 73 4 24 -2 25 -63 9 -38
-10 -47 -10 -60 2 -11 12 -12 23 -3 57 23 93 -17 92 -64 -1 -34 -69 -61 -102
-100 -122 -42 -22 -74 -17 -98 13 -33 43 -22 134 30 236 58 113 53 150 -15
126 -27 -10 -38 -10 -47 -1 -13 13 -48 16 -48 5 0 -5 10 -27 22 -50 19 -35 20
-44 9 -57 -18 -21 -34 -20 -81 4 -22 11 -44 20 -50 20 -24 0 -7 -35 40 -80 52
-50 60 -73 36 -105 -16 -22 -73 -17 -158 15 -42 15 -61 30 -86 65 -39 55 -56
51 -49 -12 l5 -45 -45 -20 c-27 -12 -54 -17 -69 -14 -13 4 -34 2 -45 -4 -30
-17 -9 -35 69 -61 144 -47 212 -107 212 -189 0 -75 -123 -209 -179 -195 -68
17 -101 54 -116 128 -8 41 -37 31 -48 -16 -13 -56 -37 -49 -126 38 -43 41 -81
75 -85 75 -4 0 -4 -20 0 -45 3 -25 3 -45 0 -45 -4 0 -23 7 -43 15 -20 8 -38
13 -41 10 -3 -3 0 -22 6 -42 6 -21 13 -58 16 -83 3 -25 8 -54 12 -64 5 -12 1
-19 -15 -23 -11 -3 -21 -11 -21 -17 0 -19 37 -35 134 -59 48 -12 88 -26 88
-32 0 -5 -46 -26 -103 -45 -109 -37 -117 -45 -105 -95 5 -18 17 -27 49 -35
126 -33 152 -43 184 -75 27 -27 33 -40 33 -78 0 -24 -5 -58 -11 -76 l-11 -31
-86 0 c-86 0 -548 20 -936 40 -109 6 -208 15 -218 21 -16 9 -18 17 -13 52 4
23 18 63 31 90 30 59 17 69 -48 36 -75 -38 -98 -59 -129 -121 l-30 -60 -212 6
c-556 17 -807 28 -862 36 -54 8 -65 14 -103 56 -47 51 -192 330 -192 368 0 30
62 86 137 125 123 63 177 124 188 216 4 30 11 52 16 49 5 -3 12 3 15 13 21 68
44 101 86 120 23 11 59 24 78 28 54 11 108 42 115 66 10 31 -8 44 -42 31 -15
-6 -45 -10 -66 -10 l-38 2 3 56 c2 43 0 55 -12 55 -16 0 -30 -25 -56 -100 -20
-57 -74 -115 -108 -115 -13 0 -31 9 -42 21 -16 18 -19 36 -18 123 1 86 4 106
24 139 22 37 22 40 7 73 -18 37 -40 43 -68 18 -16 -14 -23 -15 -49 -4 -35 15
-50 7 -32 -18 6 -9 19 -29 27 -44 14 -26 14 -29 -4 -47 -19 -19 -23 -19 -55
-6 -38 16 -76 20 -76 8 0 -13 13 -26 63 -66 50 -41 63 -82 33 -106 -17 -14
-89 -7 -146 14 -19 8 -46 16 -60 19 -14 3 -33 19 -43 36 -32 54 -61 29 -38
-33 5 -13 6 -28 3 -34 -11 -17 -54 -36 -107 -48 -68 -16 -66 -36 5 -53 118
-27 176 -48 208 -76 38 -34 62 -75 62 -109 0 -38 -48 -123 -92 -162 -34 -31
-45 -36 -71 -31 -17 4 -45 19 -62 35 -16 16 -36 26 -43 24 -7 -3 -15 7 -18 26
-9 43 -29 58 -43 32 -6 -11 -11 -26 -11 -35 0 -28 -21 -27 -67 3 -26 17 -52
31 -58 31 -7 0 -29 14 -50 30 -21 17 -40 30 -43 30 -2 0 -1 -20 2 -45 8 -50 1
-54 -50 -35 -36 14 -40 7 -22 -32 9 -18 24 -58 33 -88 9 -30 19 -61 22 -68 3
-8 -4 -16 -16 -19 -59 -15 11 -48 125 -58 133 -11 132 -20 -10 -82 -102 -44
-115 -57 -95 -99 13 -26 21 -30 74 -36 33 -4 81 -12 106 -18 72 -17 123 -83
112 -143 l-5 -27 -602 0 c-330 0 -611 3 -623 6 -21 6 -23 13 -23 63 1 48 15
106 45 174 11 27 -24 22 -76 -12 -62 -40 -82 -66 -109 -141 -13 -36 -28 -70
-34 -77 -14 -15 -1030 -37 -1096 -24 -36 7 -55 20 -92 60 -63 69 -208 307
-208 343 0 35 58 95 162 165 88 60 123 109 140 199 6 33 17 83 26 112 18 62
49 88 147 122 72 25 105 54 105 92 0 33 0 34 -51 7 -22 -11 -50 -19 -62 -17
-19 3 -23 11 -27 58 -8 92 -47 74 -64 -31 -13 -79 -103 -168 -144 -143 -32 20
-46 66 -46 149 -1 52 5 94 16 121 14 34 15 48 6 77 -14 45 -32 53 -57 25z
m3033 -365 c110 -31 169 -113 151 -209 -8 -48 -75 -118 -130 -140 -82 -31 -79
1 6 93 27 28 49 56 49 62 0 6 -12 18 -27 28 -37 23 -43 32 -43 69 0 36 -22 59
-65 70 -36 8 -57 23 -49 35 8 13 41 11 108 -8z m-3104 -23 c112 -30 173 -147
126 -239 -27 -50 -117 -121 -157 -121 -21 0 -6 35 37 90 34 44 45 65 42 87 -3
24 -8 28 -32 28 -26 0 -31 5 -40 40 -17 64 -33 85 -66 85 -15 0 -35 3 -44 6
-19 7 -21 30 -3 38 15 7 87 -1 137 -14z m6287 -72 c137 -51 188 -173 114 -277
-26 -37 -132 -91 -178 -91 -18 0 -33 3 -33 8 0 12 43 57 98 101 61 50 68 78
20 83 -33 3 -33 3 -36 63 -4 69 -11 81 -56 89 -19 4 -39 12 -45 20 -27 32 34
35 116 4z m-3190 -70 c-3 -8 -6 -5 -6 6 -1 11 2 17 5 13 3 -3 4 -12 1 -19z
m-593 -215 c4 -4 24 -6 46 -4 43 3 190 -56 225 -90 29 -28 1 -25 -52 7 -25 14
-51 23 -60 20 -9 -4 -30 -1 -47 5 -23 8 -42 8 -71 0 -34 -9 -42 -8 -52 6 -23
30 -13 80 11 56z m3287 -74 c78 -38 139 -82 139 -101 0 -21 -52 -4 -111 37
-72 52 -101 55 -109 12 l-5 -28 -27 28 c-24 26 -32 48 -29 81 2 23 57 12 142
-29z m-6184 -20 c74 -24 113 -52 97 -69 -8 -8 -23 -7 -55 5 -24 9 -68 25 -97
35 -63 23 -84 18 -76 -16 8 -33 -11 -31 -48 6 -33 33 -33 49 1 66 26 13 85 4
178 -27z m3077 -525 l46 -7 0 -68 0 -68 54 -58 c67 -73 136 -179 136 -209 0
-36 -34 -51 -170 -73 -107 -18 -138 -27 -218 -68 -90 -46 -93 -47 -135 -34
-23 7 -87 16 -142 21 -130 11 -215 33 -295 77 -127 70 -130 71 -221 70 -129
-3 -161 29 -179 180 -5 43 -15 96 -23 119 -8 22 -15 57 -15 77 0 31 3 36 27
40 44 7 1085 7 1135 1z m-1524 -14 l25 -8 -27 -1 c-14 -1 -96 -14 -181 -31
-87 -16 -210 -32 -283 -36 -138 -7 -129 -9 -244 51 -41 21 -43 23 -20 28 44 8
704 5 730 -3z m2974 -20 c109 -5 201 -12 204 -15 36 -36 -241 -75 -532 -75
-169 0 -220 12 -269 63 l-33 36 25 4 c35 5 359 -2 605 -13z m1021 -35 c358
-16 481 -23 573 -31 l62 -6 0 -41 c0 -23 8 -54 18 -68 9 -14 36 -54 59 -88 48
-72 86 -165 78 -191 -9 -27 -27 -31 -182 -41 -99 -6 -152 -13 -175 -25 -82
-42 -384 -124 -457 -124 -46 0 -111 30 -178 81 -68 51 -91 59 -189 68 -135 13
-174 57 -174 195 0 46 -8 99 -21 141 -18 60 -19 109 -2 138 7 11 237 8 588 -8z
m1770 -100 c291 -18 507 -35 517 -41 11 -7 -25 -75 -51 -98 -21 -19 -29 -19
-264 -8 -376 19 -525 47 -542 103 -4 13 -14 32 -23 42 -14 16 -11 17 54 17 38
0 177 -7 309 -15z m2384 -651 c97 -49 135 -136 95 -220 -35 -73 -143 -99 -203
-49 -76 65 -53 176 34 162 26 -4 35 -2 35 8 0 21 -37 37 -70 30 -87 -19 -101
-149 -24 -222 56 -53 128 -55 199 -7 46 31 57 30 84 -6 26 -36 22 -47 -37 -90
-24 -17 -57 -52 -75 -77 -79 -116 -108 -114 -250 17 -107 99 -146 201 -116
307 17 62 78 124 150 151 73 28 115 27 178 -4z m209 -429 c15 -9 47 -21 72
-28 55 -16 79 -48 114 -155 30 -89 33 -127 10 -136 -8 -3 -45 6 -82 22 -83 34
-175 118 -170 153 2 19 10 25 35 27 45 4 83 -34 83 -83 0 -41 23 -57 47 -32
13 12 13 21 3 51 -17 53 -62 86 -115 86 -52 0 -81 -25 -91 -77 -9 -47 -20 -41
-28 13 -10 76 -7 107 14 142 23 37 63 43 108 17z m393 -106 c44 -14 44 -14 54
-73 4 -23 18 -51 35 -68 38 -38 79 -37 123 2 36 31 76 50 108 50 15 0 19 -7
19 -37 -1 -40 -23 -153 -33 -170 -7 -11 -86 -2 -146 18 -95 31 -191 127 -191
191 0 27 -27 71 -40 63 -4 -3 0 -38 11 -77 16 -62 16 -75 4 -87 -11 -12 -17
-10 -39 14 -32 35 -76 122 -76 151 0 13 8 28 18 34 19 12 92 7 153 -11z m193
-88 c7 -11 -20 -41 -38 -41 -15 0 -36 20 -36 35 0 14 66 19 74 6z m341 -26
c34 -10 65 -30 101 -66 38 -38 63 -54 90 -58 29 -5 44 -15 61 -40 24 -36 30
-71 12 -71 -6 0 -24 9 -40 20 -27 20 -30 20 -61 4 -72 -38 -381 -8 -362 34 11
26 42 124 48 154 9 39 69 48 151 23z m178 -78 c-3 -5 -10 -4 -15 1 -6 6 -7 16
-3 22 6 9 9 9 16 -1 4 -7 5 -17 2 -22z"/>
<path d="M12180 1801 c-14 -35 -5 -58 16 -40 15 12 20 69 5 69 -5 0 -14 -13
-21 -29z"/>
</g>
</svg>
